<svg xmlns="http://www.w3.org/2000/svg" xmlns:xlink="http://www.w3.org/1999/xlink" width="182.049" height="180.286" viewBox="0 0 182.049 180.286">
  <defs>
    <linearGradient id="linear-gradient" x1="0.101" y1="0.966" x2="0.8" y2="0.074" gradientUnits="objectBoundingBox">
      <stop offset="0" stop-color="#4377fb"/>
      <stop offset="1" stop-color="#7ff9fe"/>
    </linearGradient>
    <linearGradient id="linear-gradient-2" x1="0.175" y1="0.197" x2="1.036" y2="0.788" gradientUnits="objectBoundingBox">
      <stop offset="0" stop-color="#7ff9fe"/>
      <stop offset="1" stop-color="#4377fb"/>
    </linearGradient>
  </defs>
  <g id="artwork" transform="translate(-95.214 -133.13)">
    <path id="Path_10" data-name="Path 10" d="M578.748,296a10.8,10.8,0,0,0-11.037-3.478,4.307,4.307,0,0,1-4.62-1.786,21.612,21.612,0,0,0-39.422,12.98,2.864,2.864,0,0,1-1.414,2.594,14.412,14.412,0,1,0,19.668,19.668,2.866,2.866,0,0,1,2.6-1.414,21.625,21.625,0,0,0,18.575-9.37,4.3,4.3,0,0,1,4.617-1.782A10.808,10.808,0,0,0,578.748,296Z" transform="translate(-419.789 -141.107)" opacity="0.3" fill="url(#linear-gradient)"/>
    <path id="Path_9" data-name="Path 9" d="M498.84,210.916a17.5,17.5,0,0,1-3.807-14.8,62.132,62.132,0,0,0-6.459-42.218,5.3,5.3,0,0,1,2.261-7.334,17.7,17.7,0,1,0-24.351-22.292,5.3,5.3,0,0,1-7.11,2.861A62.023,62.023,0,0,0,376.8,160.683a8.951,8.951,0,0,1-7.566,5.552,35.4,35.4,0,1,0,19.17,66.82,8.848,8.848,0,0,1,9.274.717,62.1,62.1,0,0,0,48.943,10.752,17.507,17.507,0,0,1,14.8,3.806,26.551,26.551,0,0,0,37.422-37.414Z" transform="translate(-227.848 51.2)" opacity="0.3" fill="url(#linear-gradient-2)"/>
    <g id="Group_5" data-name="Group 5" transform="translate(-80.237 32.402)">
      <path id="Path_4" data-name="Path 4" d="M210.6,178.531c.065,2.768,1.683,4.763,3.782,6.356.54.41,1.109.772,1.674,1.145.328.217.659.432.978.664l.134.1c.051.048.111.105.193.181,1.379,1.267,2.421,2.466,2.472,4.542a62.608,62.608,0,0,1-.772,8.428c-.625,5.677.338,11.35,5.293,14.79,3.111,2.159,7.2,2.5,10.867,2.147.953-.091,1.9-.21,2.852-.337l2.177-.293.015,0,.227-.027a23.278,23.278,0,0,1,4.477-.254l.122.007.134.036c.07.018.153.046.237.076.058.17.124.365.144.462.028.133.05.22.067.286,0,.037,0,.066.005.109.027.526.036,1.046.03,1.572a5.335,5.335,0,0,0,5.13,5.13c6.241.283,12.123.207,18.5.325,4.54.084,9.772.893,14.331,1.16,7.5.44,9.113-8.184,2.727-9.894-5.483-1.469-11.069-.249-16.622-.19-4.879.052-9.654-1.144-14.489-1.557-1.117-3.739-3.647-6.9-7.956-7.5a26.284,26.284,0,0,0-7.233.017q-1.286.169-2.571.345c-.184.025-.252.036-.264.038l-.408.049c-1.073.13-2.151.253-3.232.283a18.066,18.066,0,0,1-1.941-.023,1.962,1.962,0,0,0-.214-.01l-.255-.065c-.188-.045-.674-.234-.888-.3-.151-.1-.3-.194-.38-.239-.125-.141-.245-.277-.316-.346-.164-.343-.346-.739-.321-.559a14.647,14.647,0,0,1-.058-4.533c.455-4.137,1.406-8.329.432-12.475a16.375,16.375,0,0,0-5.4-8.749c-.853-.689-1.721-1.355-2.627-1.97,3.261-4.778,7.509-8.768,10.4-13.86a51.217,51.217,0,0,0,6.208-17.929c1-6.844.87-14.027,3.283-20.593a19.252,19.252,0,0,1,7.793-9.879,27.461,27.461,0,0,1,3.23-1.751,21.107,21.107,0,0,1,2.242-.822c1.031-.32,2.071-.614,3.128-.838.535-.113,1.07-.226,1.609-.317-.025,0,1.126-.155,1.086-.161a53.331,53.331,0,0,1,26.651,4.146c-.022,0,1.223.536,1.378.608.482.225.963.449,1.438.688.924.463,1.842.939,2.736,1.457a64.076,64.076,0,0,1,6.624,4.445,45.012,45.012,0,0,1,9.831,10.018c5.273,7.908,6.451,16.65,4.1,26.059a50.048,50.048,0,0,1-16.013,26.493A46.326,46.326,0,0,1,269.6,195.872c-6.59.29-6.618,10.553,0,10.261a57.017,57.017,0,0,0,46.856-27.854c9.122-15.6,12.3-36.35,1.026-51.742C305.423,110.083,284.159,99.785,263.7,100.8c-9.584.473-19.811,3.523-26.171,11.165a35.441,35.441,0,0,0-7.669,17.71c-1.008,6.736-1.006,13.69-3.01,20.243a43.263,43.263,0,0,1-7.609,14.353C216.017,168.293,210.461,172.869,210.6,178.531Z" transform="translate(0 0)" fill="#000ffe"/>
      <path id="Path_5" data-name="Path 5" d="M331.344,240.546c.983,4.256,4.479,6.3,8.35,6.768a55.551,55.551,0,0,1,2.333,15.88,111.1,111.1,0,0,1-.808,14.836c-.437,3.421-.9,8.453-3.05,11.182-2.208,2.8,1.724,6.791,3.958,3.957,2.433-3.084,3.415-7.03,4.064-10.842a103.515,103.515,0,0,0,1.37-14.118c.217-6.958,0-14.47-2.04-21.3.232-.059.463-.122.689-.191a17.225,17.225,0,0,0,1.642-.6c.218.186.444.367.681.541,3.546,2.592,8.916,3.353,13.53,2.27a16.019,16.019,0,0,0,5.712,3.815c-.74,1.853-1.409,3.735-2.1,5.611a55.449,55.449,0,0,0-2.919,9.385c-1.15,6.4-.821,12.808-.8,19.272.01,3.609,5.607,3.61,5.6,0-.008-3.176-.133-6.352-.088-9.528a44.134,44.134,0,0,1,1.02-9.816,90.748,90.748,0,0,1,3.12-9.291c.522-1.452,1.032-2.9,1.6-4.294a19.871,19.871,0,0,0,2.913.094c3.137-.134,6.525-.884,8.872-3.12,2.512-2.393,3.588-6.742,2.011-9.933-1.844-3.731-6.379-2.712-9.266-.985a21.178,21.178,0,0,0-7.567,7.491,12.178,12.178,0,0,1-2.617-1.241,9.355,9.355,0,0,0,3.413-9.37c-.681-4.088-5.437-7.471-8.928-3.864a12.094,12.094,0,0,0-2.862,10.7,11.906,11.906,0,0,1-1.249,0,13.875,13.875,0,0,1-5.039-1.023c2.85-2.8,4.142-6.642,1.392-10.761-3.114-4.665-8.15-2.6-9.625,2.1a11.668,11.668,0,0,0-.014,7.172c-.38.114-.765.212-1.152.292-.279-.572-.574-1.137-.89-1.692-1.447-2.54-3.461-6.541-6.591-7.264C331.566,231.672,330.631,237.462,331.344,240.546Zm44.921,8.028a12.853,12.853,0,0,1,2.5-2.4,14.2,14.2,0,0,1,3.335-1.959,4.837,4.837,0,0,1-.224,1.695,3.162,3.162,0,0,1-1.786,1.8,9.89,9.89,0,0,1-3.227.839C376.668,248.562,376.468,248.569,376.266,248.574Zm-11.739-7.85a7.17,7.17,0,0,1,.947-2.934,4.762,4.762,0,0,1-.969,3.76A6.13,6.13,0,0,1,364.526,240.724Zm-14.9-2.363a4.963,4.963,0,0,1,.151-1.739c.065-.247.134-.555.225-.862,0,0,.006.006,0,0a2.064,2.064,0,0,1-.291,2.483C349.687,238.284,349.653,238.323,349.624,238.362Z" transform="translate(-84.23 -89.953)" fill="#000ffe"/>
      <path id="Path_6" data-name="Path 6" d="M326.61,534.7c-1.885.252-3.75-.4-4.3-2.26a3.219,3.219,0,0,1,2.443-3.979c13.63-1.822,27.234,1.069,40.572,3.451,3.534.631,3.046,4.729.465,5.958a1.156,1.156,0,0,1-.321.312c-8.845,4.2-14.754,4.807-21.5,7.236-6.324,2.278-12.945,4.152-18.455,7.944a3.664,3.664,0,0,1-4.786-1.161c-1.044-1.649-.271-3.376,1.255-4.426,9.315-6.411,18.371-8.208,34.091-10.986C346.365,535.006,336.369,533.4,326.61,534.7Z" transform="translate(-76.627 -298.5)" fill="#000ffe"/>
      <path id="Path_7" data-name="Path 7" d="M333.1,595.883c12.437-5.252,25.024-10.12,37.682-14.812,4.239-1.572,6.052,5.192,1.86,6.746-12.088,4.481-24.132,9.091-36.01,14.106-1.757.742-3.731.546-4.786-1.255C330.98,599.185,331.345,596.625,333.1,595.883Z" transform="translate(-84.417 -335.497)" fill="#000ffe"/>
      <path id="Path_8" data-name="Path 8" d="M363.643,641.033c6.2-2.011,12.675-4.14,18.659-6.4,2.8-1.057,3.845-.591,5.816,2.541,3.548,5.638-3.692,12.056-8.309,14.581-7.229,3.953-15.292,1.974-19.187-5.453C359.381,643.929,359.329,642.432,363.643,641.033Z" transform="translate(-104.329 -372.73)" fill="#000ffe"/>
    </g>
  </g>
</svg>
