<svg xmlns="http://www.w3.org/2000/svg" width="78.081" height="17.383" viewBox="0 0 78.081 17.383"><g transform="translate(-33.718 0.002)"><path d="M47.16.88a6,6,0,0,1,2.47,2.47,7.67,7.67,0,0,1,.86,3.71A11,11,0,0,1,50.33,9a10.66,10.66,0,0,1-1.76,4.32,9.37,9.37,0,0,1-3.34,3,9.25,9.25,0,0,1-4.38,1.06A7.85,7.85,0,0,1,37,16.45,6,6,0,0,1,34.57,14a7.71,7.71,0,0,1-.85-3.68,11.1,11.1,0,0,1,.17-2A10.67,10.67,0,0,1,35.65,4a9.32,9.32,0,0,1,7.74-4,7.76,7.76,0,0,1,3.77.88ZM40,2.83a7.09,7.09,0,0,0-2.53,2.28A8.75,8.75,0,0,0,36,8.57a8.61,8.61,0,0,0-.14,1.54A5.12,5.12,0,0,0,37.3,13.9,5.06,5.06,0,0,0,41,15.29a6.68,6.68,0,0,0,3.2-.8,7.31,7.31,0,0,0,2.54-2.29,8.39,8.39,0,0,0,1.38-3.46,8.57,8.57,0,0,0,.14-1.54,5.08,5.08,0,0,0-1.39-3.78A5.05,5.05,0,0,0,43.2,2a6.81,6.81,0,0,0-3.2.83Z" fill="#000ffe"/><path d="M64.25,5.14a4.62,4.62,0,0,1,1.42,3.6h-2.3a2.79,2.79,0,0,0-.92-2.22,3.69,3.69,0,0,0-2.51-.8,4.76,4.76,0,0,0-3.22,1.24,6,6,0,0,0-1.85,3.61,8.44,8.44,0,0,0-.12,1.25,3.51,3.51,0,0,0,1,2.69,3.52,3.52,0,0,0,2.51.91,4.89,4.89,0,0,0,2.8-.82,4.39,4.39,0,0,0,1.72-2.23H65A7.19,7.19,0,0,1,62.37,16a7.47,7.47,0,0,1-4.43,1.33A5.49,5.49,0,0,1,54,15.9,5.09,5.09,0,0,1,52.51,12a10,10,0,0,1,.14-1.63A8.48,8.48,0,0,1,54.1,6.88a7.21,7.21,0,0,1,2.68-2.29,7.69,7.69,0,0,1,3.47-.79,5.65,5.65,0,0,1,4,1.34Z" fill="#000ffe"/><path d="M78.17,4.43A4.35,4.35,0,0,1,80,6.16a5,5,0,0,1,.61,2.48,6.919,6.919,0,0,1-.1,1.18,6.22,6.22,0,0,1-.34,1.2H69.67a9,9,0,0,0-.1,1,3.28,3.28,0,0,0,1,2.6,3.69,3.69,0,0,0,2.53.88,5,5,0,0,0,2.78-.8,4.2,4.2,0,0,0,1.7-2.15h2.33A7,7,0,0,1,77.28,16a7.47,7.47,0,0,1-4.39,1.31,5.51,5.51,0,0,1-4-1.39A5.08,5.08,0,0,1,67.46,12a9.089,9.089,0,0,1,.14-1.58,8.41,8.41,0,0,1,1.46-3.55A7.46,7.46,0,0,1,71.78,4.6a7.68,7.68,0,0,1,3.48-.8,6.13,6.13,0,0,1,2.91.63Zm.26,4.33a2.89,2.89,0,0,0-1-2.38A3.79,3.79,0,0,0,75,5.57a5.12,5.12,0,0,0-3.22,1.12A5.37,5.37,0,0,0,69.84,10h8.45a5.58,5.58,0,0,0,.14-1.24Z" fill="#000ffe"/><path d="M92.9,4.76a3.93,3.93,0,0,1,1.44,2.56L94.94,4H97.1L94.78,17.14H92.59l.6-3.36a6.26,6.26,0,0,1-5.71,3.53,4.93,4.93,0,0,1-3.68-1.38,5.19,5.19,0,0,1-1.36-3.8,8.81,8.81,0,0,1,.17-1.73A8.87,8.87,0,0,1,84,6.88a7,7,0,0,1,2.53-2.29,6.81,6.81,0,0,1,3.23-.79,4.84,4.84,0,0,1,3.14.96ZM86.67,7a5.89,5.89,0,0,0-1.82,3.54,6.8,6.8,0,0,0-.12,1.18,3.58,3.58,0,0,0,1,2.69,3.75,3.75,0,0,0,2.74,1,5,5,0,0,0,2.4-.6,5.4,5.4,0,0,0,1.9-1.69,6.32,6.32,0,0,0,1-2.53,5.809,5.809,0,0,0,.1-1.08,3.67,3.67,0,0,0-1-2.74,3.67,3.67,0,0,0-2.7-1A5,5,0,0,0,86.67,7Z" fill="#000ffe"/><path d="M110.65,4.84A4.2,4.2,0,0,1,111.79,8a8.381,8.381,0,0,1-.12,1.46l-1.37,7.66h-2.18l1.32-7.46a5.779,5.779,0,0,0,.1-1.08,2.92,2.92,0,0,0-.82-2.23,3.23,3.23,0,0,0-2.3-.77,4.39,4.39,0,0,0-3.07,1.16,5.76,5.76,0,0,0-1.66,3.4v-.1l-1.25,7.08H98.23L100.56,4h2.21l-.55,3.1a5.71,5.71,0,0,1,2.23-2.46,6,6,0,0,1,3.12-.85,4.27,4.27,0,0,1,3.08,1.05Z" fill="#000ffe"/></g></svg>