<svg viewBox="0 0 111.79 17.33" xmlns="http://www.w3.org/2000/svg"><g fill="#000ffe"><path d="m47.16.88a6 6 0 0 1 2.47 2.47 7.67 7.67 0 0 1 .86 3.71 11 11 0 0 1 -.16 1.94 10.66 10.66 0 0 1 -1.76 4.32 9.37 9.37 0 0 1 -3.34 3 9.25 9.25 0 0 1 -4.38 1.06 7.85 7.85 0 0 1 -3.85-.93 6 6 0 0 1 -2.43-2.45 7.71 7.71 0 0 1 -.85-3.68 11.1 11.1 0 0 1 .17-2 10.67 10.67 0 0 1 1.76-4.32 9.32 9.32 0 0 1 7.74-4 7.76 7.76 0 0 1 3.77.88zm-7.16 1.95a7.09 7.09 0 0 0 -2.53 2.28 8.75 8.75 0 0 0 -1.47 3.46 8.61 8.61 0 0 0 -.14 1.54 5.12 5.12 0 0 0 1.44 3.79 5.06 5.06 0 0 0 3.7 1.39 6.68 6.68 0 0 0 3.2-.8 7.31 7.31 0 0 0 2.54-2.29 8.39 8.39 0 0 0 1.38-3.46 8.57 8.57 0 0 0 .14-1.54 5.08 5.08 0 0 0 -1.39-3.78 5.05 5.05 0 0 0 -3.67-1.42 6.81 6.81 0 0 0 -3.2.83z"/><path d="m64.25 5.14a4.62 4.62 0 0 1 1.42 3.6h-2.3a2.79 2.79 0 0 0 -.92-2.22 3.69 3.69 0 0 0 -2.51-.8 4.76 4.76 0 0 0 -3.22 1.24 6 6 0 0 0 -1.85 3.61 8.44 8.44 0 0 0 -.12 1.25 3.51 3.51 0 0 0 1 2.69 3.52 3.52 0 0 0 2.51.91 4.89 4.89 0 0 0 2.8-.82 4.39 4.39 0 0 0 1.72-2.23h2.22a7.19 7.19 0 0 1 -2.63 3.63 7.47 7.47 0 0 1 -4.43 1.33 5.49 5.49 0 0 1 -3.94-1.43 5.09 5.09 0 0 1 -1.49-3.9 10 10 0 0 1 .14-1.63 8.48 8.48 0 0 1 1.45-3.49 7.21 7.21 0 0 1 2.68-2.29 7.69 7.69 0 0 1 3.47-.79 5.65 5.65 0 0 1 4 1.34z"/><path d="m78.17 4.43a4.35 4.35 0 0 1 1.83 1.73 5 5 0 0 1 .61 2.48 6.92 6.92 0 0 1 -.1 1.18 6.22 6.22 0 0 1 -.34 1.2h-10.5a9 9 0 0 0 -.1 1 3.28 3.28 0 0 0 1 2.6 3.69 3.69 0 0 0 2.53.88 5 5 0 0 0 2.78-.8 4.2 4.2 0 0 0 1.7-2.15h2.33a7 7 0 0 1 -2.63 3.45 7.47 7.47 0 0 1 -4.39 1.31 5.51 5.51 0 0 1 -4-1.39 5.08 5.08 0 0 1 -1.43-3.92 9.09 9.09 0 0 1 .14-1.58 8.41 8.41 0 0 1 1.46-3.55 7.46 7.46 0 0 1 2.72-2.27 7.68 7.68 0 0 1 3.48-.8 6.13 6.13 0 0 1 2.91.63zm.26 4.33a2.89 2.89 0 0 0 -1-2.38 3.79 3.79 0 0 0 -2.43-.81 5.12 5.12 0 0 0 -3.22 1.12 5.37 5.37 0 0 0 -1.94 3.31h8.45a5.58 5.58 0 0 0 .14-1.24z"/><path d="m92.9 4.76a3.93 3.93 0 0 1 1.44 2.56l.6-3.32h2.16l-2.32 13.14h-2.19l.6-3.36a6.26 6.26 0 0 1 -5.71 3.53 4.93 4.93 0 0 1 -3.68-1.38 5.19 5.19 0 0 1 -1.36-3.8 8.81 8.81 0 0 1 .17-1.73 8.87 8.87 0 0 1 1.39-3.52 7 7 0 0 1 2.53-2.29 6.81 6.81 0 0 1 3.23-.79 4.84 4.84 0 0 1 3.14.96zm-6.23 2.24a5.89 5.89 0 0 0 -1.82 3.54 6.8 6.8 0 0 0 -.12 1.18 3.58 3.58 0 0 0 1 2.69 3.75 3.75 0 0 0 2.74 1 5 5 0 0 0 2.4-.6 5.4 5.4 0 0 0 1.9-1.69 6.32 6.32 0 0 0 1-2.53 5.81 5.81 0 0 0 .1-1.08 3.67 3.67 0 0 0 -1-2.74 3.67 3.67 0 0 0 -2.7-1 5 5 0 0 0 -3.5 1.23z"/><path d="m110.65 4.84a4.2 4.2 0 0 1 1.14 3.16 8.38 8.38 0 0 1 -.12 1.46l-1.37 7.66h-2.18l1.32-7.46a5.78 5.78 0 0 0 .1-1.08 2.92 2.92 0 0 0 -.82-2.23 3.23 3.23 0 0 0 -2.3-.77 4.39 4.39 0 0 0 -3.07 1.16 5.76 5.76 0 0 0 -1.66 3.4v-.1l-1.25 7.08h-2.21l2.33-13.12h2.21l-.55 3.1a5.71 5.71 0 0 1 2.23-2.46 6 6 0 0 1 3.12-.85 4.27 4.27 0 0 1 3.08 1.05z"/></g><path d="m.32 9.36a8.42 8.42 0 0 0 12.08 0 6.61 6.61 0 0 1 9.68 0 .92.92 0 1 0 1.21-1.36 8.42 8.42 0 0 0 -12.09 0 6.61 6.61 0 0 1 -9.68 0 .92.92 0 0 0 -1.2 1.36z" fill="#5a6ff6"/><path d="m.32 4.32a8.4 8.4 0 0 0 6 2.56 8.4 8.4 0 0 0 6-2.56 6.61 6.61 0 0 1 9.68 0 .92.92 0 0 0 1.2-1.4 8.42 8.42 0 0 0 -12.08 0 6.6 6.6 0 0 1 -4.76 2.08 6.6 6.6 0 0 1 -4.84-2.08.92.92 0 1 0 -1.2 1.4z" fill="#819edb"/><path d="m23.29 13a8.42 8.42 0 0 0 -12.09 0 6.61 6.61 0 0 1 -9.68 0 .92.92 0 0 0 -1.2 1.4 8.42 8.42 0 0 0 12.08 0 6.61 6.61 0 0 1 9.68 0 .92.92 0 1 0 1.21-1.4z" fill="#000bb4"/></svg>