<svg viewBox="0 0 316.89 103.74" xmlns="http://www.w3.org/2000/svg"><g fill="#333"><path d="m186.53 56.22c.65 1.61 1.23 3.38 2 5 1.53 3.07 5.48 4.68 9.16 3.87a8.06 8.06 0 0 0 6.11-7.3c0-2.75-.16-5.5-.28-8.88 4.36-1.43 9.38-3.1 14.42-4.71 1.38-.44 2.8-.72 4.21-1.06 4.65-1.1 3.37-1.36 5.13 2.48a.74.74 0 0 0 .24-.29c-.48-2.83.94-4 3.58-4.13q9.67-.54 19.35-1.11c1.16-.07 1.62.45 1.62 1.63v21.52c0 1.64-1 1.52-2.11 1.62q-9.54.8-19.07 1.7c-1 .09-1.9.37-3 .58l-.65-2.49c-.46 2.59-2 3.18-4 3.69-11.17 2.83-21.79 7.21-32.48 11.44-8.42 3.33-17 6.21-25.55 9.28-.35.13-.73.18-1.34.32a9.87 9.87 0 0 1 -.33-1.74c0-7.33 0-14.65 0-22a2.62 2.62 0 0 1 1.22-2c7.24-2.53 14.48-4.95 21.77-7.42z"/><path d="m316.82 60.3h-38.11c2.64 6.76 13.13 8.25 22.09 1.46l12 12.16-.47.73c-4.62-1-9.22-2.13-13.87-3-11.21-2.07-22.44-4-33.68-6a35.06 35.06 0 0 0 -7-.72c-2 .06-2.74-.91-3.1-2.49a30.51 30.51 0 0 1 0-14.12 28.08 28.08 0 0 1 8.1-13.74c2-1.89 3.72-2.65 6.77-1.66 14.76 4.76 29.61 9.08 44.45 13.52 1.95.58 2.95 1.55 2.87 3.71-.14 3.26-.05 6.54-.05 10.15zm-22.69-11.75c-.5-4-5.07-5.42-8.31-5.34-3.94.09-7 2.42-7.56 5.34z"/><path d="m0 11.42h2.69c12.14 0 24.28-.24 36.41.08 8.57.22 16.43 2.84 22.5 9.37 1 1 1.74 2.25 3.06 4-17.27-2.66-33.58-7-50-10.74l-.27.77c2.92 1.33 5.81 2.74 8.77 4a107.71 107.71 0 0 0 29.29 7.71c3.92.43 7.84.93 11.77 1.19a2.87 2.87 0 0 1 2.81 2.73 43.6 43.6 0 0 1 .65 7c0 3.06-.15 6.12-.26 9.63-4.39-1-8.09-1.89-11.76-2.82s-7.49-2.09-11.27-3a1.84 1.84 0 0 1 -1.7-2.18c.15-6.46-3.9-8.55-9.11-8.73-2.73-.09-5.47 0-8.53 0v5.57c-1.75-.39-3.15-.66-4.53-1-6.33-1.71-12.66-3.42-19-5.23a2.41 2.41 0 0 1 -1.46-1.67c-.12-5.47-.06-10.94-.06-16.68z"/><path d="m121.75 30.49c2.17-.94 4.27-2.34 6.53-2.74 7.32-1.29 14.63-2 21.59 1.9a25.2 25.2 0 0 1 12.13 14.16c.22.65-.24 2.18-.7 2.33-7 2.27-14.07 4.37-21.12 6.5a1.59 1.59 0 0 1 -.65-.1c-1.7-6.24-7.12-8.82-13-5.77a7.42 7.42 0 0 0 -3.73 5.85c-.29 1.92-1.26 2.33-2.71 2.24-6.6-.44-13.19-.93-19.77-1.53a2.18 2.18 0 0 1 -1.37-1.6c-.09-7.17 0-14.34-.08-21.51 0-1.52.84-1.71 2.05-1.74 5.1-.11 10.19-.25 15.28-.39.61 0 1.22 0 1.83-.08 3.1-.36 3.1-.37 3.72 2.48z"/><path d="m0 38.42c20.22 7.17 40.7 12.17 61.85 17.91l-6.72 5.16 14.6 21.57a6.69 6.69 0 0 1 -1.39.39c-5.88.15-11.71.15-17.34-1.84a54.66 54.66 0 0 0 -8.61-2.23c-2.7-.47-3.84-2.42-5.11-4.38-1.71-2.64-3.39-5.3-5.18-7.89a2.69 2.69 0 0 0 -1.77-1.24c-4 .29-7.25-1.74-10.58-3.27-6.15-2.83-12.14-6-18.15-9.15a3 3 0 0 1 -1.51-2c-.18-4.31-.09-8.64-.09-13.03z"/><path d="m122.7 80.37v22.55l-14.29-4.58c-2.69-.86-5.39-1.67-8-2.64a2.41 2.41 0 0 1 -1.44-1.59c-.07-9.54 0-19.08 0-28.62a3.92 3.92 0 0 1 .36-.94c21.09 4.44 42.26 5.84 63.45-.38-3.04 15.44-22.53 26.11-40.08 16.2z"/><path d="m221.43 35.57c-19.85.64-38.43 6-57.59 9.31v-17.43h22.23l.19 3.48c5.51-4.53 11.89-4.68 18.24-4.19a23.48 23.48 0 0 1 16.93 8.83z"/><path d="m94 83.34h-23.64v-25c3.42.66 6.64 1.36 9.89 2.07 4.09.89 8.17 1.78 12.24 2.78a2.14 2.14 0 0 1 1.43 1.31c.08 6.24.08 12.5.08 18.84z"/><path d="m93.64 52.24c-2.46-.38-4.92-.69-7.35-1.17-4.77-.94-9.52-2-14.3-2.94a1.84 1.84 0 0 1 -1.81-2.13c0-5.33.06-10.67 0-16 0-1.49.5-2 2-2 6.53.18 13.07.29 19.6.4 1.25 0 2.26.09 2.24 1.77v20.8a6.1 6.1 0 0 1 -.38 1.27z"/><path d="m.12 59 24.73 6.87v9.1l-17.79-4.7-.26.59c3.2 1.57 6.29 3.14 9.46 4.69 2 1 4 1.89 6.06 2.65 2.46.9 3.24 2.49 2.45 5.1h-24.65z"/><path d="m227.68 28.3c0-1.91 0-3.81 0-5.72 0-1.28.45-1.86 1.8-1.49 7.13 1.92 14.27 3.79 21.37 5.77a2.18 2.18 0 0 1 1.2 1.62c.12 3 0 5.94.07 8.92 0 1.55-.86 1.46-2 1.27-5.46-.94-10.93-1.84-16.4-2.75a12.08 12.08 0 0 0 -1.36-.15c-4.71-.24-4.71-.24-4.71-5q.03-1.21.03-2.47z"/><path d="m95.69 10c-5.07.44-10 .94-15 1.28-3.26.23-6.54.28-9.81.33-3.08 0-4.06-1.33-2.9-4.21 1.69-4.4 6.5-8.35 11.71-8.22 3.31.09 6.65-.27 9.81 1.24 2.96 1.41 7.11 4.97 6.19 9.58z"/><path d="m252.1 7.35v8.29c0 1.74-1.43 1.28-2.39 1.23-3.41-.19-6.81-.68-10.21-.66-3.56 0-7.11.48-10.66.74a9.25 9.25 0 0 1 -1 0v-9.6z"/><path d="m68 14.39h27.51c-.34 3.68-5.31 8.21-10.66 8.61-9.01.63-14.16-1.43-16.85-8.61z"/><path d="m187.16 102.89h-23.4v-5l23.4-2.89v7.93z"/><path d="m267.46 78.59a160 160 0 0 1 31 4.07c-7.4 2.82-25.12 1.56-31-4.07z"/><path d="m309.52 36.07-26.38-8.74c7.18-2.33 21.62 1.67 26.38 8.74z"/><path d="m252 78.83v4.47h-18.27l-.13-.67z"/></g></svg>