<svg xmlns="http://www.w3.org/2000/svg" width="23.609" height="16.6" viewBox="0 0 23.609 16.6"><g transform="translate(-124.657 -53.977)"><path d="M.322,189.35a8.418,8.418,0,0,0,12.083,0,6.605,6.605,0,0,1,9.682,0,.922.922,0,1,0,1.2-1.4,8.419,8.419,0,0,0-12.083,0,6.6,6.6,0,0,1-9.681,0,.922.922,0,0,0-1.2,1.4Z" transform="translate(124.657 -126.372)" fill="#5a6ff6"/><path d="M.322,79.956a8.419,8.419,0,0,0,12.083,0,6.605,6.605,0,0,1,9.682,0,.922.922,0,0,0,1.2-1.4,8.419,8.419,0,0,0-12.083,0,6.6,6.6,0,0,1-9.681,0,.922.922,0,1,0-1.2,1.4Z" transform="translate(124.657 -22.023)" fill="#819edb"/><path d="M23.288,297.343a8.419,8.419,0,0,0-12.083,0,6.6,6.6,0,0,1-9.681,0h0a.922.922,0,0,0-1.2,1.4,8.418,8.418,0,0,0,12.083,0,6.605,6.605,0,0,1,9.682,0,.922.922,0,1,0,1.2-1.4Z" transform="translate(124.656 -230.721)" fill="#000bb4"/></g></svg>